<svg xmlns="http://www.w3.org/2000/svg" width="1740" height="1030" viewBox="0 0 1740 1030" preserveAspectRatio="none">
            <!-- https://grabient.com/HQNgTAHANMAsEFYZjLKBaYBmAjNTYAnCDLIfnDmBsGCITDgOwk7Z00KHXpsAMfLEA?style=angularSwatches&angle=210&steps=15 -->
            <defs>
              <clipPath id="squareClip">
                <rect x="0" y="0" width="1740" height="1030" />
              </clipPath>
            </defs>
            <g clip-path="url(#squareClip)" shape-rendering="crispEdges">
          <path d="
              M 870.000,515.000
              L 364.499,1390.553
              A 1011.002,1011.002 0 0 1 52.082,1109.252
              Z
            " fill="#c5bbb8" fill-opacity="1.000" /><path d="
              M 870.000,515.000
              L 52.082,1109.252
              A 1011.002,1011.002 0 0 1 -118.909,725.199
              Z
            " fill="#b8b5b8" fill-opacity="1.000" /><path d="
              M 870.000,515.000
              L -118.909,725.199
              A 1011.002,1011.002 0 0 1 -118.909,304.801
              Z
            " fill="#a9afb7" fill-opacity="1.000" /><path d="
              M 870.000,515.000
              L -118.909,304.801
              A 1011.002,1011.002 0 0 1 52.082,-79.252
              Z
            " fill="#9aa8b5" fill-opacity="1.000" /><path d="
              M 870.000,515.000
              L 52.082,-79.252
              A 1011.002,1011.002 0 0 1 364.499,-360.553
              Z
            " fill="#8ba1b3" fill-opacity="1.000" /><path d="
              M 870.000,515.000
              L 364.499,-360.553
              A 1011.002,1011.002 0 0 1 764.322,-490.464
              Z
            " fill="#7d98af" fill-opacity="1.000" /><path d="
              M 870.000,515.000
              L 764.322,-490.464
              A 1011.002,1011.002 0 0 1 1182.417,-446.520
              Z
            " fill="#7090ab" fill-opacity="1.000" /><path d="
              M 870.000,515.000
              L 1182.417,-446.520
              A 1011.002,1011.002 0 0 1 1546.492,-236.321
              Z
            " fill="#6587a6" fill-opacity="1.000" /><path d="
              M 870.000,515.000
              L 1546.492,-236.321
              A 1011.002,1011.002 0 0 1 1793.596,103.788
              Z
            " fill="#5c7ea1" fill-opacity="1.000" /><path d="
              M 870.000,515.000
              L 1793.596,103.788
              A 1011.002,1011.002 0 0 1 1881.002,515.000
              Z
            " fill="#55759b" fill-opacity="1.000" /><path d="
              M 870.000,515.000
              L 1881.002,515.000
              A 1011.002,1011.002 0 0 1 1793.596,926.212
              Z
            " fill="#516c94" fill-opacity="1.000" /><path d="
              M 870.000,515.000
              L 1793.596,926.212
              A 1011.002,1011.002 0 0 1 1546.492,1266.321
              Z
            " fill="#4f638d" fill-opacity="1.000" /><path d="
              M 870.000,515.000
              L 1546.492,1266.321
              A 1011.002,1011.002 0 0 1 1182.417,1476.520
              Z
            " fill="#505a85" fill-opacity="1.000" /><path d="
              M 870.000,515.000
              L 1182.417,1476.520
              A 1011.002,1011.002 0 0 1 764.322,1520.464
              Z
            " fill="#54537d" fill-opacity="1.000" /><path d="
              M 870.000,515.000
              L 764.322,1520.464
              A 1011.002,1011.002 0 0 1 364.499,1390.553
              Z
            " fill="#5b4b74" fill-opacity="1.000" /></g>
        </svg>